<svg width="49" height="25" viewBox="0 0 49 25" fill="none" xmlns="http://www.w3.org/2000/svg">
<g clip-path="url(#clip0_1206_1418)">
<path d="M10.0995 8.05497C10.571 7.89709 11.0739 7.81289 11.5956 7.81289C13.8796 7.81289 15.7864 9.44218 16.2222 11.6083L19.4596 10.9452C18.7178 7.26558 15.4784 4.49537 11.5956 4.49537C10.7051 4.49537 9.85228 4.64061 9.05185 4.91006L10.0995 8.05497Z" fill="#FFCB05"/>
<path d="M6.27967 18.5927L8.46934 16.1067C7.49289 15.2373 6.87685 13.968 6.87685 12.5534C6.87685 11.1409 7.49289 9.8716 8.46934 9.00433L6.27967 6.51619C4.62014 7.99392 3.57245 10.1516 3.57245 12.5534C3.57245 14.9573 4.62014 17.115 6.27967 18.5927" fill="#00A4E0"/>
<path d="M16.2222 13.5049C15.7843 15.6689 13.8796 17.296 11.5977 17.296C11.0739 17.296 10.5689 17.2118 10.0995 17.0519L9.05185 20.201C9.85228 20.4683 10.7072 20.6136 11.5977 20.6136C15.4763 20.6136 18.7136 17.8476 19.4596 14.1722L16.2222 13.5049Z" fill="#EF4123"/>
<path d="M22.2904 16.2098C22.1836 16.0372 22.0411 15.7615 21.9531 15.5573C21.4397 14.3616 21.4166 13.1239 21.8483 11.9366C22.3239 10.6336 23.2333 9.63795 24.4088 9.12853C25.8861 8.49071 27.5184 8.6149 28.9349 9.45902C29.8338 9.97686 30.4708 10.7768 30.9548 11.9093C31.0156 12.0545 31.07 12.2082 31.1245 12.3408L22.2904 16.2098ZM25.2407 11.0504C24.1909 11.503 23.6503 12.4924 23.7635 13.6501L28.2057 11.7282C27.4409 10.8273 26.4476 10.5284 25.2407 11.0504V11.0504ZM28.7588 15.231C28.7567 15.231 28.7567 15.2331 28.7567 15.2331L28.6645 15.17C28.3984 15.6015 27.9856 15.953 27.4639 16.1804C26.4707 16.614 25.5508 16.5024 24.8887 15.9193L24.8279 16.012C24.8279 16.012 24.8279 16.0099 24.8258 16.0099L23.6985 17.7044C23.9793 17.9002 24.2789 18.0644 24.5932 18.197C25.8379 18.7169 27.1119 18.6917 28.367 18.1444C29.2743 17.7486 29.9867 17.1466 30.4729 16.3825L28.7588 15.231ZM34.211 6.63618V16.0541L35.6694 16.6477L34.8417 18.5885L33.2325 17.9149C32.8721 17.757 32.6248 17.5171 32.4404 17.2455C32.2623 16.9698 32.1303 16.5887 32.1303 16.0793V6.63618H34.211ZM37.9869 13.6564C37.9869 12.8544 38.341 12.1345 38.8984 11.6461L37.4023 9.97054C36.3881 10.8715 35.749 12.1871 35.749 13.6522C35.7469 15.1194 36.386 16.4372 37.3981 17.3381L38.8921 15.6625C38.3368 15.1721 37.9869 14.4564 37.9869 13.6564V13.6564ZM40.6438 16.3277C40.3505 16.3277 40.0655 16.2772 39.8015 16.1888L39.0869 18.3212C39.5752 18.4854 40.0969 18.5759 40.6417 18.5759C43.0095 18.578 44.9854 16.8898 45.4443 14.6479L43.2484 14.1974C42.999 15.4162 41.9283 16.3298 40.6438 16.3277V16.3277ZM40.6501 8.73699C40.1074 8.73699 39.5856 8.82541 39.0974 8.98749L39.8057 11.122C40.0718 11.0336 40.3546 10.9852 40.648 10.9852C41.9346 10.9873 43.0074 11.9051 43.2505 13.126L45.4464 12.6797C44.9959 10.4336 43.02 8.7391 40.6501 8.73699V8.73699Z" fill="white"/>
</g>
<defs>
<clipPath id="clip0_1206_1418">
<rect width="49" height="23.2542" fill="white" transform="translate(0 0.931553)"/>
</clipPath>
</defs>
</svg>
